{"title":"Brave 2012 Arabic 1080p BLuRay X264 AC3 - alrmothe","uid":7891891,"size":6687847268,"categoryP":"video","categoryS":"hd___movies","magnet":"?xt=urn:btih:ca12a729e6609a129b7664636cef8f6c6b159cfa&amp;dn=Brave+2012+Arabic+1080p+BLuRay+X264+AC3+-+alrmothe&amp;tr=udp%3A%2F%2Ftracker.openbittorrent.com%3A80&amp;tr=udp%3A%2F%2Fopen.demonii.com%3A1337&amp;tr=udp%3A%2F%2Ftracker.coppersurfer.tk%3A6969&amp;tr=udp%3A%2F%2Fexodus.desync.com%3A6969","seeders":2,"leechers":0,"uploader":".alrmothe","files":25,"time":1354743488,"description":"************************************************\n\nBrave 2012 Arabic 1080p BLuRay X264 AC3 - alrmothe\n\n************************************************\n\nTiTLE: Brave\nYEAR:2012\nGENRE :  Animation | Action | Adventure\niMDB URL : http://www.imdb.com/title/tt1217209/\nSIZE : 6.21 GB\nFormat : mkv \nOverall bit rate:9452 Kbps\nSub: No \n\nEncoded / Released By :alrmothe\n****************************\n\nVideo\nFormat : AVC\nFormat/Info : Advanced Video Codec\nFormat profile : &lt;a class=&quot;__cf_email__&quot; href=&quot;/cdn-cgi/l/email-protection&quot; data-cfemail=&quot;cf87a6a8a78f83fbe1fe&quot;&gt;[email&amp;#160;protected]&lt;/a&gt;&lt;script cf-hash='f9e31' type=&quot;text/javascript&quot;&gt;\n/* &lt;![CDATA[ */!function(){try{var t=&quot;currentScript&quot;in document?document.currentScript:function(){for(var t=document.getElementsByTagName(&quot;script&quot;),e=t.length;e--;)if(t[e].getAttribute(&quot;cf-hash&quot;))return t[e]}();if(t&amp;&amp;t.previousSibling){var e,r,n,i,c=t.previousSibling,a=c.getAttribute(&quot;data-cfemail&quot;);if(a){for(e=&quot;&quot;,r=parseInt(a.substr(0,2),16),n=2;a.length-n;n+=2)i=parseInt(a.substr(n,2),16)^r,e+=String.fromCharCode(i);e=document.createTextNode(e),c.parentNode.replaceChild(e,c)}}}catch(u){}}();/* ]]&gt; */&lt;/script&gt;\nRuntime: 1h 34min 12sec\nbit rate: 9000 Kbps\nWidth: 1920 pixels\nHeight: 804 pixels\nDisplay aspect ratio : 2.40:1\nFrame rate: 23.976 fps\nBit depth : 8 bits\nBits/(Pixel*Frame) : 0.243\nStream size : 5.80 GiB (93%)\n\nAudio: Arabic\nFormat: AC3\nBit rate: 448 Kbps\nSampling rate: 48.0 KHz\nChannel(s): 6 channels(5.1)\nStream size : 302 MiB (5%)\nLanguage : Arabic\n***************************************\n","torrent":{"xt":"urn:btih:ca12a729e6609a129b7664636cef8f6c6b159cfa","amp;dn":"Brave+2012+Arabic+1080p+BLuRay+X264+AC3+-+alrmothe","amp;tr":["udp%3A%2F%2Ftracker.openbittorrent.com%3A80","udp%3A%2F%2Fopen.demonii.com%3A1337","udp%3A%2F%2Ftracker.coppersurfer.tk%3A6969","udp%3A%2F%2Fexodus.desync.com%3A6969"],"infoHash":"ca12a729e6609a129b7664636cef8f6c6b159cfa","infoHashBuffer":{"type":"Buffer","data":[202,18,167,41,230,96,154,18,155,118,100,99,108,239,143,108,107,21,156,250]},"announce":[],"urlList":[]}}